<svg xmlns="http://www.w3.org/2000/svg" version="1.1" xmlns:xlink="http://www.w3.org/1999/xlink" xmlns:svgjs="http://svgjs.dev/svgjs" width="100%" height="100%" viewBox="0 0 1000 600"><rect width="1000" height="600" x="0" y="0" fill="#181a43"/><g><circle r="166.66666666666666" cx="357.7680308024088" cy="379.9902517193432" fill="bl" transform="matrix(0.6541030755300614,0,0,0.6541030755300613,0,51.447190556477025)"/><path d="M264.4890153459106 437.9415174017952L264.4890153459106 437.9415174017952Q255.56009988911143 437.9415174017952 246.92014609758087 435.8609934118614Q238.28019230605028 433.7804694219276 231.6340740048729 429.6194214420601L231.6340740048729 429.6194214420601Q229.35127684925112 427.9434437835023 228.51328801997224 424.735969299021Q227.67529919069335 421.4995986480129 227.67529919069335 416.93400433676936L227.67529919069335 416.93400433676936Q227.67529919069335 408.81418154272217 230.79608517559402 397.6891574298818Q233.9168711604947 386.5641333170415 238.71363480395314 374.6878088745028Q243.48150228088474 362.8403805984909 248.6828122557192 352.23548748313397Q253.88412223055366 341.6016982012502 258.04517021042125 334.75330673438486L258.04517021042125 334.75330673438486Q262.0039450246008 328.7140079302715 267.84097066302616 326.3156261085423Q273.64910013492465 323.91724428681306 280.09294527041396 323.91724428681306L280.09294527041396 323.91724428681306Q294.04979370288646 323.91724428681306 291.96926971295267 326.43121077464974L291.96926971295267 326.43121077464974Q287.6059485673971 331.4302475837962 282.80918492393863 339.5211742113164Q278.0124212804802 347.6409970053636 273.85137330061264 356.0786776312061Q269.69032532074505 364.48746209052183 266.80070866805926 370.7290340603232L266.80070866805926 370.7290340603232Q259.923421034667 385.29270198985967 254.72211105983254 399.1339657562247Q249.52080108499808 412.97522952258976 247.6425502607523 421.4995986480129L247.6425502607523 421.4995986480129Q247.2380039293763 423.17557630657075 247.2380039293763 424.2158383015376L247.2380039293763 424.2158383015376Q247.2380039293763 426.49863545715937 248.6828122557192 428.2613016152977Q250.15651674858896 430.0239677734361 253.88412223055366 430.65968343702696L253.88412223055366 430.65968343702696Q255.35782672342341 430.86195660271494 256.6870503836589 430.9775412688224Q258.04517021042125 431.06422976840304 259.518874703291 431.06422976840304L259.518874703291 431.06422976840304Q267.40752816512327 431.06422976840304 274.0825426328275 427.13435112075024Q280.7286609340049 423.17557630657075 282.4046385925626 415.6914691761144L282.4046385925626 415.6914691761144Q283.0114580896267 413.17750268827774 282.80918492393863 410.2589898690651L282.80918492393863 410.2589898690651Q282.80918492393863 405.28884922644556 281.36437659759576 399.24955042233216Q279.890672104726 393.2102516182189 277.0877439516207 388.00894164338433Q274.2848157985155 382.8076316685499 269.92149465295995 380.32256134724014L269.92149465295995 380.32256134724014Q267.84097066302616 379.0511300200584 267.84097066302616 377.4040485280275L267.84097066302616 377.4040485280275Q267.84097066302616 375.5257977037817 270.12376781864793 375.1212513724056L270.12376781864793 375.1212513724056Q275.1228046277944 375.1212513724056 280.41080310220946 371.1624765582261Q285.72769774315134 367.2037017440465 290.2066035548143 360.75985660855713Q294.65661319995047 354.31601147306776 297.4884375195826 346.7163196765041Q300.2913656726878 339.11662787994044 300.2913656726878 332.0370670808602L300.2913656726878 332.0370670808602Q300.2913656726878 322.0678896290941 294.3676515346819 318.19580331449515Q288.41504123014914 314.352613166423 280.3241146026288 314.352613166423L280.3241146026288 314.352613166423Q273.4468269692366 314.352613166423 266.16499300446833 316.34644865677626Q258.8831590397001 318.3113879806026 253.47957589917763 320.79645830191237L253.47957589917763 320.79645830191237Q241.83442078885383 326.2289376089617 234.03245582660213 334.75330673438486Q226.23049086435043 343.277675859808 224.95905953716868 351.3974986538551L224.95905953716868 351.3974986538551Q223.9187975422018 350.9640561559522 221.02918088951597 350.35723665888827Q218.11066807030332 349.7215209952974 215.30773991719806 347.8432701710516Q212.47591559756597 345.9939155133327 212.07136926618995 342.43968703052917L212.07136926618995 342.43968703052917Q211.43565360259907 335.15785306576083 215.7122862485741 329.436412093443Q219.9889188945491 323.714971121125 227.5597145245859 319.6695078073649Q235.15940632114962 315.59514832707794 244.43507577627105 312.90780484008013Q253.68184906486567 310.1915651865554 263.2464801852557 308.9490300259006Q272.81111130564574 307.70649486524565 281.13320726538086 307.70649486524565L281.13320726538086 307.70649486524565Q284.6874357481844 307.70649486524565 287.80822173308513 307.90876803093363Q290.92900771798577 308.11104119662167 293.4140780392956 308.5444836945245L293.4140780392956 308.5444836945245Q310.05826995876583 311.23182718152236 317.3401039235341 319.23606530946205Q324.62193788830234 327.26919960392866 324.62193788830234 337.03610389000664L324.62193788830234 337.03610389000664Q324.62193788830234 345.7627461811178 319.4206279134679 354.2004268069604Q314.2193179386334 362.63810743280294 305.1748178157268 368.3595484051209Q296.13031769282026 374.08098937743875 284.4851625824964 374.6878088745028L284.4851625824964 374.6878088745028Q296.5348640241963 377.4040485280275 303.09429382579305 386.246275485246Q309.65372362738987 395.0885024424646 309.65372362738987 405.28884922644556L309.65372362738987 405.28884922644556Q309.65372362738987 413.8132183518687 304.65468681824336 421.7018718137009Q299.6556500090969 429.6194214420601 288.646210562364 433.7804694219276L288.646210562364 433.7804694219276Q277.8101481147922 437.9415174017952 264.4890153459106 437.9415174017952ZM455.29040292275477 454.9902556526415L455.29040292275477 454.9902556526415Q454.6546872591639 454.9902556526415 454.0478677620999 454.903567153061Q453.41215209850895 454.7879824869535 452.7764364349181 454.58570932126554L452.7764364349181 454.58570932126554Q445.49460247014986 452.30291216564365 442.3738164852492 445.6278976979395Q439.25303050034853 438.98177939676214 439.25303050034853 429.6194214420601L439.25303050034853 429.6194214420601Q439.25303050034853 419.852517155982 441.96927015387314 407.9761927134433Q444.6855098073978 396.1287644374315 449.04883095295344 383.7323089974094Q453.41215209850895 371.3647497239141 458.295604241548 360.0374524453857Q463.17905638458706 348.68125900033044 467.7735468623574 339.63675887742386Q472.3391411736011 330.5922587545173 475.4599271585017 325.39094877968284L475.4599271585017 325.39094877968284Q472.1368680079131 328.3094615988955 465.4907497067357 334.8399952339654Q458.8157352390315 341.3994250355622 450.69591244498434 350.35723665888827Q442.60498581746407 359.2861521156874 435.3231518526958 369.4864988996683Q428.04131788792756 379.68684568364927 423.4468274101572 390.0894656333181L423.4468274101572 390.0894656333181Q422.40656541519024 392.8057052868428 420.32604142525645 398.9316925905367Q418.24551743532265 405.05767989423066 416.68512444287234 412.1372406933109Q415.12473145042196 419.21680149239114 415.12473145042196 424.62038463291367L415.12473145042196 424.62038463291367Q415.12473145042196 428.78143261278115 416.3672666110769 431.06422976840304L416.3672666110769 431.06422976840304Q416.3672666110769 431.29539910061783 416.4828512771843 431.38208760019836Q416.59843594329175 431.4976722663058 416.59843594329175 431.6999454319938L416.59843594329175 431.6999454319938Q416.59843594329175 433.7804694219276 411.5993991341453 433.7804694219276L411.5993991341453 433.7804694219276Q402.03476801375524 433.7804694219276 398.1626816991563 428.05902844960974Q394.3194915510841 422.3375874772918 394.3194915510841 413.37977585396584L394.3194915510841 413.37977585396584Q394.3194915510841 402.7748827386089 398.3938510313711 389.3670614701467Q402.43931434513127 375.93034403515765 407.6406243199657 363.6783694277699L407.6406243199657 363.6783694277699Q410.5591371391784 356.80108179437764 414.2867426211431 349.63483249571675Q418.04324426963467 342.43968703052917 421.27961492064276 336.7182460582112Q424.48708940512404 330.9968050858933 425.96079389799377 328.7140079302715L425.96079389799377 328.7140079302715Q419.28577943028955 334.75330673438486 410.87699497097384 343.59553369160346Q402.43931434513127 352.43776064882206 393.9149452197081 363.15823843028636Q385.390576094285 373.84982004522385 378.1087421295167 385.20601349027913Q370.8269081647485 396.5333107688075 366.43469085266605 407.6583348816479Q362.0713697071105 418.8122551610152 362.0713697071105 428.57915944709316L362.0713697071105 428.57915944709316Q362.0713697071105 433.1447537583367 364.3541668627323 435.8609934118614L364.3541668627323 435.8609934118614Q364.78760936063514 436.69898224114036 364.78760936063514 436.69898224114036L364.78760936063514 436.69898224114036Q364.78760936063514 437.3058017382043 362.70708537070135 437.3058017382043L362.70708537070135 437.3058017382043Q352.5067385867204 437.3058017382043 347.42101327799344 433.66488475582025Q342.30639180273954 430.0239677734361 342.30639180273954 421.7018718137009L342.30639180273954 421.7018718137009Q342.30639180273954 420.66160981873406 342.42197646884694 419.6213478237671Q342.5086649684275 418.58108582880027 342.7398343006424 417.33855066814533L342.7398343006424 417.33855066814533Q343.3466537977064 412.1372406933109 345.7450356194356 403.4972869017803Q348.14341744116484 394.8862292767766 352.188880754925 384.1657514953123Q356.263240235212 373.4452737138479 361.551238709627 362.1179764353195Q366.8681333505689 350.76178299026424 373.10970532037027 340.3591630405954L373.10970532037027 340.3591630405954Q373.7165248174343 339.3189010456284 376.31717980485155 335.5912955636637Q378.91783479226876 331.8347939151722 381.316216613998 327.6737459353046Q383.7145984357272 323.51269795543703 383.7145984357272 321.6344471311913L383.7145984357272 321.6344471311913Q383.7145984357272 319.7561963069455 381.2295281144174 320.79645830191237L381.2295281144174 320.79645830191237Q377.6752996316139 322.0678896290941 372.9074321546823 326.2289376089617Q368.1106685112238 330.3899855888293 362.50481220501337 335.7935687293517Q356.870059732276 341.19715186987423 350.74407242858206 346.2828771786012Q344.5891889583613 351.3974986538551 338.2609284889794 354.8361424705513Q331.90377185307057 358.24589012072056 325.8644730489573 358.24589012072056L325.8644730489573 358.24589012072056Q324.41966472261436 358.24589012072056 322.859271730164 358.04361695503246Q321.29887873771366 357.8413437893445 319.6229010791559 357.2056281257536L319.6229010791559 357.2056281257536Q316.0975687628792 355.96309296509867 316.0975687628792 350.9640561559522L316.0975687628792 350.9640561559522Q316.0975687628792 346.1961886790207 318.90049691598443 339.63675887742386Q321.7034250690897 333.0773290758271 325.8644730489573 327.03803027171375L325.8644730489573 327.03803027171375Q326.9047350439241 325.39094877968284 328.3784395367939 324.6685446165114Q329.8232478631368 323.91724428681306 330.6612366924157 323.91724428681306L330.6612366924157 323.91724428681306Q332.33721435097345 323.91724428681306 332.33721435097345 325.39094877968284L332.33721435097345 325.39094877968284Q332.33721435097345 325.99776827674685 331.7014986873826 327.03803027171375L331.7014986873826 327.03803027171375Q331.4992255216946 327.8760191009926 331.18136768989916 328.5117347645835Q330.8635098581037 329.11855426164755 330.8635098581037 329.55199675955043L330.8635098581037 329.55199675955043Q330.8635098581037 330.9968050858933 332.33721435097345 331.5169360833768Q333.7820226773164 332.0370670808602 335.45800033587415 332.0370670808602L335.45800033587415 332.0370670808602Q339.8213214814297 332.0370670808602 346.90088228050996 329.11855426164755Q353.95154691306334 326.2289376089617 362.1869543732179 321.9523049629867Q370.3934656668456 317.67567231701173 378.62887312700013 313.51462433714414Q386.8353844206279 309.35357635727655 393.9149452197081 306.98409070207424Q400.99450601878834 304.585708880345 405.5601003300319 305.42369770962387L405.5601003300319 305.42369770962387Q409.0854326463086 306.2327903723759 411.91725696594074 310.3938383522435Q414.72018511904594 314.55488633211104 415.55817394832485 317.67567231701173L415.55817394832485 317.67567231701173Q415.9627202797009 318.9471036441935 414.2867426211431 321.8367202968793Q412.63966112911214 324.755233116092 410.039006141695 328.3094615988955Q407.4383511542777 331.8347939151722 404.92438466644103 334.95557990007285Q402.43931434513127 338.0763658849735 401.1967791844764 339.7523435435313L401.1967791844764 339.7523435435313Q398.4805395309517 343.07540269412004 394.95520721467506 347.8432701710516Q391.4009787318714 352.64003381451005 387.9912310817022 357.32121279186106Q384.5525872650061 362.00239176921207 382.4720632750723 365.1231777541127L382.4720632750723 365.1231777541127Q381.2295281144174 367.2037017440465 381.316216613998 368.5618215708089Q381.43180128010545 369.91994139757116 382.2697901093843 368.8796794026043L382.2697901093843 368.8796794026043Q386.8353844206279 362.8403805984909 393.1925410565367 355.0384156362393Q399.5208015259186 347.2364506739875 406.08023132751543 339.4344857117359Q412.63966112911214 331.63252074948423 418.1588289357421 325.7088066114783Q423.6491005758451 319.7561963069455 426.56761339505783 317.67567231701173L426.56761339505783 317.67567231701173Q427.6078753900247 316.8665796542597 430.41080354313 315.5084598274974Q433.24262786276205 314.150340000735 437.17250651041473 314.150340000735L437.17250651041473 314.150340000735Q439.4841998325634 314.150340000735 441.76699698818516 314.7860556643259Q444.049794143807 315.39287516138995 446.7660337973316 317.06885281994767L446.7660337973316 317.06885281994767Q451.12935494288723 319.7561963069455 451.12935494288723 324.95750628177996L451.12935494288723 324.95750628177996Q451.12935494288723 331.63252074948423 444.6855098073978 342.0351406991531Q438.21276850538163 352.43776064882206 429.4861262142705 365.9611665833917L429.4861262142705 365.9611665833917Q433.6471741941381 360.55758344286915 439.77316149783195 353.36243797768145Q445.92804496805275 346.1961886790207 452.48747476964957 338.39422371676903Q459.01800840471947 330.5922587545173 464.9706187092522 323.83055578723247Q470.89433284725817 317.06885281994767 474.9397961610183 312.5899470082847Q479.01415564130525 308.11104119662167 479.8232483040573 307.50422169955766L479.8232483040573 307.50422169955766Q483.3774767868608 304.990255211721 485.4580007767946 304.990255211721L485.4580007767946 304.990255211721Q487.10508226882564 304.990255211721 489.4167755909742 306.03051720668793Q491.699572746596 307.0707792016548 495.2249050628727 308.9490300259006L495.2249050628727 308.9490300259006Q499.8193955406432 311.23182718152236 501.6687501983621 314.67047099821843Q503.5470010226079 318.1091148149146 503.5470010226079 322.27016279478215L503.5470010226079 322.27016279478215Q503.5470010226079 328.5117347645835 500.62848820339514 335.0711645661803Q497.7388715507094 341.6016982012502 495.02263189718474 346.60073501039665L495.02263189718474 346.60073501039665Q492.94210790725094 350.1549634932003 488.8966445934908 358.67933261862333Q484.82228511320375 367.2037017440465 480.0544176362722 378.44431052299433Q475.25765399281374 389.68491930194216 470.7787481811507 401.7346207436419Q466.2998423694877 413.8132183518687 463.41022571680196 424.735969299021Q460.4917128975892 435.6587202461734 460.4917128975892 443.3451005423177L460.4917128975892 443.3451005423177Q460.4917128975892 446.0613401958424 460.8962592289653 448.34413735146416Q461.32970172686817 450.62693450708593 462.369963721835 452.30291216564365L462.369963721835 452.30291216564365Q459.65372406831034 454.9902556526415 455.29040292275477 454.9902556526415Z " fill="#d2302c" transform="matrix(0.6541030755300614,0,0,0.6541030755300613,0,51.447190556477025)"/><path d="M660.2679612687621 437.9415174017952L660.2679612687621 437.9415174017952Q651.3390458119629 437.9415174017952 642.6990920204323 435.8609934118614Q634.0591382289018 433.7804694219276 627.4130199277245 429.6194214420601L627.4130199277245 429.6194214420601Q625.1302227721026 427.9434437835023 624.2922339428237 424.735969299021Q623.4542451135449 421.4995986480129 623.4542451135449 416.93400433676936L623.4542451135449 416.93400433676936Q623.4542451135449 408.81418154272217 626.5750310984456 397.6891574298818Q629.6958170833462 386.5641333170415 634.4925807268047 374.6878088745028Q639.2604482037362 362.8403805984909 644.4617581785708 352.23548748313397Q649.6630681534052 341.6016982012502 653.8241161332728 334.75330673438486L653.8241161332728 334.75330673438486Q657.7828909474523 328.7140079302715 663.6199165858777 326.3156261085423Q669.4280460577761 323.91724428681306 675.8718911932656 323.91724428681306L675.8718911932656 323.91724428681306Q689.828739625738 323.91724428681306 687.7482156358042 326.43121077464974L687.7482156358042 326.43121077464974Q683.3848944902486 331.4302475837962 678.5881308467901 339.5211742113164Q673.7913672033317 347.6409970053636 669.6303192234641 356.0786776312061Q665.4692712435966 364.48746209052183 662.5796545909108 370.7290340603232L662.5796545909108 370.7290340603232Q655.7023669575185 385.29270198985967 650.5010569826841 399.1339657562247Q645.2997470078496 412.97522952258976 643.4214961836038 421.4995986480129L643.4214961836038 421.4995986480129Q643.0169498522278 423.17557630657075 643.0169498522278 424.2158383015376L643.0169498522278 424.2158383015376Q643.0169498522278 426.49863545715937 644.4617581785708 428.2613016152977Q645.9354626714405 430.0239677734361 649.6630681534052 430.65968343702696L649.6630681534052 430.65968343702696Q651.136772646275 430.86195660271494 652.4659963065104 430.9775412688224Q653.8241161332728 431.06422976840304 655.2978206261425 431.06422976840304L655.2978206261425 431.06422976840304Q663.1864740879748 431.06422976840304 669.861488555679 427.13435112075024Q676.5076068568565 423.17557630657075 678.1835845154142 415.6914691761144L678.1835845154142 415.6914691761144Q678.7904040124781 413.17750268827774 678.5881308467901 410.2589898690651L678.5881308467901 410.2589898690651Q678.5881308467901 405.28884922644556 677.1433225204473 399.24955042233216Q675.6696180275775 393.2102516182189 672.8666898744723 388.00894164338433Q670.063761721367 382.8076316685499 665.7004405758114 380.32256134724014L665.7004405758114 380.32256134724014Q663.6199165858777 379.0511300200584 663.6199165858777 377.4040485280275L663.6199165858777 377.4040485280275Q663.6199165858777 375.5257977037817 665.9027137414994 375.1212513724056L665.9027137414994 375.1212513724056Q670.9017505506459 375.1212513724056 676.189749025061 371.1624765582261Q681.5066436660029 367.2037017440465 685.9855494776659 360.75985660855713Q690.435559122802 354.31601147306776 693.2673834424342 346.7163196765041Q696.0703115955394 339.11662787994044 696.0703115955394 332.0370670808602L696.0703115955394 332.0370670808602Q696.0703115955394 322.0678896290941 690.1465974575334 318.19580331449515Q684.1939871530006 314.352613166423 676.1030605254804 314.352613166423L676.1030605254804 314.352613166423Q669.2257728920881 314.352613166423 661.9439389273199 316.34644865677626Q654.6621049625517 318.3113879806026 649.2585218220293 320.79645830191237L649.2585218220293 320.79645830191237Q637.6133667117053 326.2289376089617 629.8114017494537 334.75330673438486Q622.009436787202 343.277675859808 620.7380054600202 351.3974986538551L620.7380054600202 351.3974986538551Q619.6977434650533 350.9640561559522 616.8081268123675 350.35723665888827Q613.8896139931549 349.7215209952974 611.0866858400495 347.8432701710516Q608.2548615204175 345.9939155133327 607.8503151890416 342.43968703052917L607.8503151890416 342.43968703052917Q607.2145995254507 335.15785306576083 611.4912321714256 329.436412093443Q615.7678648174006 323.714971121125 623.3386604474374 319.6695078073649Q630.9383522440012 315.59514832707794 640.2140216991227 312.90780484008013Q649.4607949877172 310.1915651865554 659.0254261081072 308.9490300259006Q668.5900572284972 307.70649486524565 676.9121531882324 307.70649486524565L676.9121531882324 307.70649486524565Q680.466381671036 307.70649486524565 683.5871676559366 307.90876803093363Q686.7079536408373 308.11104119662167 689.1930239621471 308.5444836945245L689.1930239621471 308.5444836945245Q705.8372158816175 311.23182718152236 713.1190498463857 319.23606530946205Q720.4008838111539 327.26919960392866 720.4008838111539 337.03610389000664L720.4008838111539 337.03610389000664Q720.4008838111539 345.7627461811178 715.1995738363194 354.2004268069604Q709.9982638614849 362.63810743280294 700.9537637385783 368.3595484051209Q691.9092636156718 374.08098937743875 680.264108505348 374.6878088745028L680.264108505348 374.6878088745028Q692.3138099470477 377.4040485280275 698.8732397486446 386.246275485246Q705.4326695502414 395.0885024424646 705.4326695502414 405.28884922644556L705.4326695502414 405.28884922644556Q705.4326695502414 413.8132183518687 700.4336327410949 421.7018718137009Q695.4345959319485 429.6194214420601 684.4251564852156 433.7804694219276L684.4251564852156 433.7804694219276Q673.5890940376437 437.9415174017952 660.2679612687621 437.9415174017952ZM731.6414925901017 437.5369710704192L731.6414925901017 437.5369710704192Q724.1573854596454 437.5369710704192 718.1180866555321 433.26033842444417Q712.0787878514187 428.98370577846924 712.0787878514187 419.21680149239114L712.0787878514187 419.21680149239114Q712.0787878514187 412.7729563569018 714.27489650746 404.2485872314786Q716.4421089969743 395.69532193952864 719.7940643140898 386.65082181662206Q723.1171234646786 377.6063216937155 726.7580404470626 369.8043567314637Q730.3989574294468 362.00239176921207 733.3174702486594 357.0033549600656L733.3174702486594 357.0033549600656Q737.883064559903 349.7215209952974 743.604505532221 348.0744395032665Q749.3259465045388 346.39846184470866 757.648042464274 346.39846184470866L757.648042464274 346.39846184470866Q763.6873412683874 346.39846184470866 767.6461160825669 347.75658167147105Q771.5759947302197 349.11470149823333 768.8886512432218 350.76178299026424L768.8886512432218 350.76178299026424Q764.9298764290422 353.4780226437889 758.688304459241 362.8403805984909Q752.4467324894395 372.20273855319294 746.6097068510142 383.84789366351686L746.6097068510142 383.84789366351686Q744.9626253589832 387.1709528141055 742.4486588711466 392.69012062073534Q739.9635885498368 398.2092884273653 737.5652067281076 404.33527573105926Q735.1668249063785 410.49015920128 733.5197434143474 415.98043084138305Q731.8437657557897 421.4995986480129 731.8437657557897 425.05382713081644L731.8437657557897 425.05382713081644Q731.8437657557897 430.255137105651 736.6405293992482 430.255137105651L736.6405293992482 430.255137105651Q741.6395662083946 430.255137105651 747.8811381781959 425.4583734621925L747.8811381781959 425.4583734621925Q750.7707548308817 423.17557630657075 753.2847213187184 420.257063487358Q755.7697916400282 417.33855066814533 757.8503156299621 414.4200378489327L757.8503156299621 414.4200378489327Q762.0113636098296 408.81418154272217 765.4500074265256 402.25475174112546Q768.8886512432218 395.69532193952864 771.8071640624345 389.88719246763014L771.8071640624345 389.88719246763014Q772.4139835594985 388.6446573069752 773.4542455544654 388.6446573069752L773.4542455544654 388.6446573069752Q774.9279500473351 388.6446573069752 775.9682120423021 390.0894656333181Q777.0084740372689 391.53427395966105 776.17048520799 393.2102516182189L776.17048520799 393.2102516182189Q773.0496992230894 399.45182358802015 768.4552087453189 407.8895042138628Q763.8896144340754 416.2982886731785 757.8503156299621 423.37784947225873L757.8503156299621 423.37784947225873Q752.6490056551276 429.41714827637213 746.0895758535307 433.46261159013216Q739.5590422184608 437.5369710704192 731.6414925901017 437.5369710704192ZM761.4045441127655 335.9958418950398L761.4045441127655 335.9958418950398Q757.8503156299621 335.9958418950398 755.7697916400282 333.5974600733106Q753.6892676500944 331.19907825158134 753.6892676500944 327.26919960392866L753.6892676500944 327.26919960392866Q753.6892676500944 322.4724359604702 756.2032341379311 318.5136611462906Q758.688304459241 314.55488633211104 762.4448061077325 312.0698160108012Q766.1724115896972 309.58474568949146 770.1311864038767 309.58474568949146L770.1311864038767 309.58474568949146Q773.6565187201534 309.58474568949146 775.7370427100872 311.95423134469377Q777.817566700021 314.352613166423 777.817566700021 317.9068416492266L777.817566700021 317.9068416492266Q777.817566700021 322.4724359604702 775.3324963787112 326.6334839403378Q772.8474260574014 330.79453192020526 769.0909244089098 333.39518690762253Q765.3344227604183 335.9958418950398 761.4045441127655 335.9958418950398ZM784.4925811677252 437.5369710704192L784.4925811677252 437.5369710704192Q777.0084740372689 437.5369710704192 770.9691752331556 433.26033842444417Q764.9298764290422 428.98370577846924 764.9298764290422 419.4190746580791L764.9298764290422 419.4190746580791Q764.9298764290422 411.9349675276229 767.8483892482549 401.127801246578Q770.7669020674676 390.2917387990061 775.5347695443992 378.96444152047775Q780.3315331878576 367.6082480754226 785.9373894940682 358.47705945293535L785.9373894940682 358.47705945293535L777.0084740372689 358.47705945293535Q775.7370427100872 358.47705945293535 775.7370427100872 357.4367974579685L775.7370427100872 357.4367974579685Q775.7370427100872 356.59880862868965 776.7773047050541 355.44296196761525Q777.817566700021 354.31601147306776 779.2912711928907 353.882568975165L779.2912711928907 353.882568975165Q782.6143303434794 352.84230698019803 787.9312249844213 350.03937882709283Q793.2192234588364 347.2364506739875 799.0562490972617 343.479949025496Q804.8643785691602 339.7523435435313 810.0656885439946 335.9958418950398Q815.266998518829 332.2393402465482 818.3877845037298 329.55199675955043L818.3877845037298 329.55199675955043Q820.2660353279756 327.8760191009926 822.4621439840167 327.26919960392866Q824.6293564735311 326.6334839403378 826.709880463465 326.6334839403378L826.709880463465 326.6334839403378Q830.2641089462685 326.6334839403378 832.1423597705143 327.8760191009926Q833.9917144282332 329.11855426164755 832.1423597705143 330.3899855888293L832.1423597705143 330.3899855888293Q830.4663821119565 331.4302475837962 827.5478692927438 335.5912955636637Q824.6293564735311 339.7523435435313 821.6241551547379 344.72248418615095Q818.6189538359447 349.7215209952974 816.307260513796 353.6802958094769L816.307260513796 353.6802958094769L832.1423597705143 353.6802958094769Q832.5469061018903 353.6802958094769 832.5469061018903 354.31601147306776L832.5469061018903 354.31601147306776Q832.5469061018903 355.3562734680347 831.7089172726114 356.9166664604851Q830.8709284433326 358.47705945293535 830.0618357805805 358.47705945293535L830.0618357805805 358.47705945293535L813.6199170267981 358.47705945293535Q809.4588690469307 365.7588934177036 804.4598322377842 375.1212513724056Q799.4607954286378 384.48360932710773 794.9818896169747 394.13492894707827Q790.5318799718385 403.8151447335757 787.6133671526259 412.05055219373037Q784.6948543334132 420.257063487358 784.6948543334132 425.05382713081644L784.6948543334132 425.05382713081644Q784.6948543334132 430.255137105651 789.4916179768717 430.255137105651L789.4916179768717 430.255137105651Q794.4617586194913 430.255137105651 800.7033305892926 425.4583734621925L800.7033305892926 425.4583734621925Q805.904640564127 421.09505231663695 810.4991310418975 414.6512071811476L810.4991310418975 414.6512071811476Q814.8624521874531 408.6119083770342 818.3010960041493 402.1680632415448Q821.7397398208453 395.69532193952864 824.0225369764671 391.1297276282851L824.0225369764671 391.1297276282851Q824.860525805746 389.68491930194216 826.3053341320889 389.68491930194216L826.3053341320889 389.68491930194216Q827.7501424584318 389.68491930194216 828.7037159538181 390.81186979648965Q829.6283932826776 391.96771645756394 828.7904044533987 393.61479794959484L828.7904044533987 393.61479794959484Q825.669618468498 399.85636991939623 820.9017509915665 408.1784658791313Q816.104987348108 416.5005618388665 810.7014042075855 423.37784947225873L810.7014042075855 423.37784947225873Q806.3380830620299 428.78143261278115 802.1770350821623 431.6999454319938L802.1770350821623 431.6999454319938Q798.2182602679828 434.41618508551846 793.7393544563198 435.97657807796884Q789.2604486446568 437.5369710704192 784.4925811677252 437.5369710704192ZM956.7426298343264 454.9902556526415L956.7426298343264 454.9902556526415Q956.1358103372625 454.9902556526415 955.5000946736716 454.903567153061Q954.8932751766075 454.7879824869535 954.2575595130166 454.58570932126554L954.2575595130166 454.58570932126554Q946.9757255482484 452.30291216564365 943.8549395633477 445.6278976979395Q940.7341535784471 438.98177939676214 940.7341535784471 429.6194214420601L940.7341535784471 429.6194214420601Q940.7341535784471 419.852517155982 943.4503932319717 407.9761927134433Q946.1377367189696 396.1287644374315 950.5010578645251 383.7323089974094Q954.8932751766075 371.3647497239141 959.7767273196466 360.0374524453857Q964.6601794626856 348.68125900033044 969.2257737739292 339.63675887742386Q973.8202642516997 330.5922587545173 976.9410502366003 325.39094877968284L976.9410502366003 325.39094877968284Q973.6179910860117 328.3094615988955 966.9429766183073 334.8399952339654Q960.29685831713 341.3994250355622 952.1770355230828 350.35723665888827Q944.0572127290357 359.2861521156874 936.7753787642675 369.4864988996683Q929.4935447994992 379.68684568364927 924.9279504882556 390.0894656333181L924.9279504882556 390.0894656333181Q923.8876884932888 392.8057052868428 921.807164503355 398.9316925905367Q919.7266405134212 405.05767989423066 918.166247520971 412.1372406933109Q916.6058545285205 419.21680149239114 916.6058545285205 424.62038463291367L916.6058545285205 424.62038463291367Q916.6058545285205 428.78143261278115 917.8483896891755 431.06422976840304L917.8483896891755 431.06422976840304Q917.8483896891755 431.29539910061783 917.963974355283 431.38208760019836Q918.0506628548634 431.4976722663058 918.0506628548634 431.6999454319938L918.0506628548634 431.6999454319938Q918.0506628548634 433.7804694219276 913.0516260457171 433.7804694219276L913.0516260457171 433.7804694219276Q903.486994925327 433.7804694219276 899.6438047772549 428.05902844960974Q895.8006146291827 422.3375874772918 895.8006146291827 413.37977585396584L895.8006146291827 413.37977585396584Q895.8006146291827 402.7748827386089 899.8460779429428 389.3670614701467Q903.9204374232298 375.93034403515765 909.1217473980644 363.6783694277699L909.1217473980644 363.6783694277699Q912.0113640507501 356.80108179437764 915.7678656992416 349.63483249571675Q919.5243673477332 342.43968703052917 922.7318418322145 336.7182460582112Q925.9682124832225 330.9968050858933 927.4130208095655 328.7140079302715L927.4130208095655 328.7140079302715Q920.7669025083881 334.75330673438486 912.3292218825455 343.59553369160346Q903.9204374232298 352.43776064882206 895.3671721312799 363.15823843028636Q886.8428030058567 373.84982004522385 879.5609690410884 385.20601349027913Q872.2791350763202 396.5333107688075 867.9158139307646 407.6583348816479Q863.552492785209 418.8122551610152 863.552492785209 428.57915944709316L863.552492785209 428.57915944709316Q863.552492785209 433.1447537583367 865.8352899408308 435.8609934118614L865.8352899408308 435.8609934118614Q866.2398362722068 436.69898224114036 866.2398362722068 436.69898224114036L866.2398362722068 436.69898224114036Q866.2398362722068 437.3058017382043 864.159312282273 437.3058017382043L864.159312282273 437.3058017382043Q853.987861664819 437.3058017382043 848.8732401895651 433.66488475582025Q843.7875148808381 430.0239677734361 843.7875148808381 421.7018718137009L843.7875148808381 421.7018718137009Q843.7875148808381 420.66160981873406 843.8742033804186 419.6213478237671Q843.9897880465261 418.58108582880027 844.1920612122141 417.33855066814533L844.1920612122141 417.33855066814533Q844.827776875805 412.1372406933109 847.2261586975342 403.4972869017803Q849.5956443527366 394.8862292767766 853.6700038330235 384.1657514953123Q857.7154671467837 373.4452737138479 863.0323617877256 362.1179764353195Q868.3203602621406 350.76178299026424 874.5619322319419 340.3591630405954L874.5619322319419 340.3591630405954Q875.1976478955328 339.3189010456284 877.7983028829501 335.5912955636637Q880.3989578703673 331.8347939151722 882.7973396920966 327.6737459353046Q885.1957215138257 323.51269795543703 885.1957215138257 321.6344471311913L885.1957215138257 321.6344471311913Q885.1957215138257 319.7561963069455 882.6817550259891 320.79645830191237L882.6817550259891 320.79645830191237Q879.1564227097124 322.0678896290941 874.3596590662539 326.2289376089617Q869.5917915893224 330.3899855888293 863.9570391165851 335.7935687293517Q858.3511828103746 341.19715186987423 852.1962993401538 346.2828771786012Q846.0703120364599 351.3974986538551 839.713155400551 354.8361424705513Q833.3848949311691 358.24589012072056 827.3455961270557 358.24589012072056L827.3455961270557 358.24589012072056Q825.9007878007128 358.24589012072056 824.3403948082625 358.04361695503246Q822.7800018158122 357.8413437893445 821.1040241572545 357.2056281257536L821.1040241572545 357.2056281257536Q817.5786918409777 355.96309296509867 817.5786918409777 350.9640561559522L817.5786918409777 350.9640561559522Q817.5786918409777 346.1961886790207 820.3816199940829 339.63675887742386Q823.1845481471883 333.0773290758271 827.3455961270557 327.03803027171375L827.3455961270557 327.03803027171375Q828.3858581220227 325.39094877968284 829.8306664483656 324.6685446165114Q831.3043709412353 323.91724428681306 832.1423597705143 323.91724428681306L832.1423597705143 323.91724428681306Q833.7894412625451 323.91724428681306 833.7894412625451 325.39094877968284L833.7894412625451 325.39094877968284Q833.7894412625451 325.99776827674685 833.1826217654811 327.03803027171375L833.1826217654811 327.03803027171375Q832.9514524332662 327.8760191009926 832.6624907679977 328.5117347645835Q832.3446329362023 329.11855426164755 832.3446329362023 329.55199675955043L832.3446329362023 329.55199675955043Q832.3446329362023 330.9968050858933 833.7894412625451 331.5169360833768Q835.2631457554149 332.0370670808602 836.9102272474458 332.0370670808602L836.9102272474458 332.0370670808602Q841.2735483930014 332.0370670808602 848.3531091920817 329.11855426164755Q855.4326699911619 326.2289376089617 863.6391812847896 321.9523049629867Q871.8745887449442 317.67567231701173 880.0811000385719 313.51462433714414Q888.3165074987264 309.35357635727655 895.3671721312799 306.98409070207424Q902.44673293036 304.585708880345 907.0412234081305 305.42369770962387L907.0412234081305 305.42369770962387Q910.5665557244072 306.2327903723759 913.3694838775125 310.3938383522435Q916.1724120306177 314.55488633211104 917.0104008598965 317.67567231701173L917.0104008598965 317.67567231701173Q917.4438433577994 318.9471036441935 915.7678656992416 321.8367202968793Q914.0918880406839 324.755233116092 911.4912330532666 328.3094615988955Q908.8905780658495 331.8347939151722 906.4055077445396 334.95557990007285Q903.9204374232298 338.0763658849735 902.649006096048 339.7523435435313L902.649006096048 339.7523435435313Q899.9616626090503 343.07540269412004 896.4074341262467 347.8432701710516Q892.88210180997 352.64003381451005 889.4434579932739 357.32121279186106Q886.0048141765778 362.00239176921207 883.924290186644 365.1231777541127L883.924290186644 365.1231777541127Q882.6817550259891 367.2037017440465 882.7973396920966 368.5618215708089Q882.8840281916771 369.91994139757116 883.722017020956 368.8796794026043L883.722017020956 368.8796794026043Q888.3165074987264 362.8403805984909 894.6447679681083 355.0384156362393Q901.0019246040172 347.2364506739875 907.5613544056139 339.4344857117359Q914.0918880406839 331.63252074948423 919.6110558473138 325.7088066114783Q925.1302236539436 319.7561963069455 928.0487364731564 317.67567231701173L928.0487364731564 317.67567231701173Q929.0889984681232 316.8665796542597 931.8919266212285 315.5084598274974Q934.6948547743336 314.150340000735 938.6536295885132 314.150340000735L938.6536295885132 314.150340000735Q940.9364267441351 314.150340000735 943.2192238997569 314.7860556643259Q945.5309172219055 315.39287516138995 948.2182607089034 317.06885281994767L948.2182607089034 317.06885281994767Q952.5815818544588 319.7561963069455 952.5815818544588 324.95750628177996L952.5815818544588 324.95750628177996Q952.5815818544588 331.63252074948423 946.1377367189696 342.0351406991531Q939.6938915834802 352.43776064882206 930.967249292369 365.9611665833917L930.967249292369 365.9611665833917Q935.1282972722366 360.55758344286915 941.2542845759305 353.36243797768145Q947.3802718796244 346.1961886790207 953.9397016812212 338.39422371676903Q960.499131482818 330.5922587545173 966.422845620824 323.83055578723247Q972.3465597588299 317.06885281994767 976.4209192391168 312.5899470082847Q980.466382552877 308.11104119662167 981.3043713821559 307.50422169955766L981.3043713821559 307.50422169955766Q984.8297036984325 304.990255211721 986.9102276883664 304.990255211721L986.9102276883664 304.990255211721Q988.5862053469241 304.990255211721 990.869002502546 306.03051720668793Q993.1517996581676 307.0707792016548 996.7060281409713 308.9490300259006L996.7060281409713 308.9490300259006Q1001.2716224522148 311.23182718152236 1003.1498732764607 314.67047099821843Q1005.0281241007065 318.1091148149146 1005.0281241007065 322.27016279478215L1005.0281241007065 322.27016279478215Q1005.0281241007065 328.5117347645835 1002.1096112814937 335.0711645661803Q999.1910984622809 341.6016982012502 996.5037549752833 346.60073501039665L996.5037549752833 346.60073501039665Q994.4232309853494 350.1549634932003 990.3488715050624 358.67933261862333Q986.3034081913024 367.2037017440465 981.5066445478438 378.44431052299433Q976.7387770709123 389.68491930194216 972.2598712592493 401.7346207436419Q967.7809654475864 413.8132183518687 964.8624526283736 424.735969299021Q961.943939809161 435.6587202461734 961.943939809161 443.3451005423177L961.943939809161 443.3451005423177Q961.943939809161 446.0613401958424 962.3773823070637 448.34413735146416Q962.7819286384398 450.62693450708593 963.8221906334068 452.30291216564365L963.8221906334068 452.30291216564365Q961.1348471464089 454.9902556526415 956.7426298343264 454.9902556526415ZM1012.9167775625386 437.5369710704192L1012.9167775625386 437.5369710704192Q1005.4326704320824 437.5369710704192 999.3933716279691 433.26033842444417Q993.3829689903826 428.98370577846924 993.3829689903826 419.21680149239114L993.3829689903826 419.21680149239114Q993.3829689903826 412.7729563569018 995.550181479897 404.2485872314786Q997.7462901359381 395.69532193952864 1001.0693492865269 386.65082181662206Q1004.3924084371155 377.6063216937155 1008.0333254194996 369.8043567314637Q1011.6742424018838 362.00239176921207 1014.5927552210965 357.0033549600656L1014.5927552210965 357.0033549600656Q1019.15834953234 349.7215209952974 1024.8797905046579 348.0744395032665Q1030.601231476976 346.39846184470866 1038.923327436711 346.39846184470866L1038.923327436711 346.39846184470866Q1044.9626262408242 346.39846184470866 1048.9214010550038 347.75658167147105Q1052.8801758691834 349.11470149823333 1050.1639362156589 350.76178299026424L1050.1639362156589 350.76178299026424Q1046.2051614014792 353.4780226437889 1039.963589431678 362.8403805984909Q1033.7220174618765 372.20273855319294 1027.9138879899779 383.84789366351686L1027.9138879899779 383.84789366351686Q1026.2379103314202 387.1709528141055 1023.7528400101105 392.69012062073534Q1021.2388735222737 398.2092884273653 1018.8693878670715 404.33527573105926Q1016.4710060453422 410.49015920128 1014.7950283867845 415.98043084138305Q1013.1479468947535 421.4995986480129 1013.1479468947535 425.05382713081644L1013.1479468947535 425.05382713081644Q1013.1479468947535 430.255137105651 1017.9158143716852 430.255137105651L1017.9158143716852 430.255137105651Q1022.9148511808316 430.255137105651 1029.156423150633 425.4583734621925L1029.156423150633 425.4583734621925Q1032.0749359698457 423.17557630657075 1034.5600062911553 420.257063487358Q1037.0739727789921 417.33855066814533 1039.1544967689258 414.4200378489327L1039.1544967689258 414.4200378489327Q1043.3155447487934 408.81418154272217 1046.7252923989627 402.25475174112546Q1050.1639362156589 395.69532193952864 1053.0824490348714 389.88719246763014L1053.0824490348714 389.88719246763014Q1053.7181646984623 388.6446573069752 1054.7584266934293 388.6446573069752L1054.7584266934293 388.6446573069752Q1056.2032350197721 388.6446573069752 1057.243497014739 390.0894656333181Q1058.283759009706 391.53427395966105 1057.445770180427 393.2102516182189L1057.445770180427 393.2102516182189Q1054.3249841955264 399.45182358802015 1049.7593898842829 407.8895042138628Q1045.1648994065122 416.2982886731785 1039.1544967689258 423.37784947225873L1039.1544967689258 423.37784947225873Q1033.9531867940914 429.41714827637213 1027.3937569924947 433.46261159013216Q1020.8343271908977 437.5369710704192 1012.9167775625386 437.5369710704192ZM1042.6798290852025 335.9958418950398L1042.6798290852025 335.9958418950398Q1039.1544967689258 335.9958418950398 1037.0739727789921 333.5974600733106Q1034.9934487890582 331.19907825158134 1034.9934487890582 327.26919960392866L1034.9934487890582 327.26919960392866Q1034.9934487890582 322.4724359604702 1037.478519110368 318.5136611462906Q1039.963589431678 314.55488633211104 1043.7200910801694 312.0698160108012Q1047.476592728661 309.58474568949146 1051.4064713763137 309.58474568949146L1051.4064713763137 309.58474568949146Q1054.9606998591173 309.58474568949146 1057.041223849051 311.95423134469377Q1059.121747838985 314.352613166423 1059.121747838985 317.9068416492266L1059.121747838985 317.9068416492266Q1059.121747838985 322.4724359604702 1056.607781351148 326.6334839403378Q1054.1227110298385 330.79453192020526 1050.3662093813468 333.39518690762253Q1046.6386038993821 335.9958418950398 1042.6798290852025 335.9958418950398ZM1101.3390471347245 437.5369710704192L1101.3390471347245 437.5369710704192Q1090.7341540193675 437.5369710704192 1087.006548537403 431.6999454319938Q1083.2500468889114 425.8629197935685 1083.2500468889114 418.1765394974243L1083.2500468889114 418.1765394974243Q1083.2500468889114 412.5706831912138 1084.4925820495662 406.93593071847647Q1085.7351172102212 401.33007441226596 1087.208821703091 396.9667532667104Q1088.6536300294338 392.574535954628 1089.2893456930246 390.9274544625971L1089.2893456930246 390.9274544625971Q1091.7744160143345 383.4433473321408 1094.5773441674396 376.4504750326412Q1097.4091684870718 369.4864988996683 1098.8539768134146 366.79915541267053L1098.8539768134146 366.79915541267053Q1098.2182611498238 367.83941740763737 1094.288382502171 372.809558050257Q1090.3296076879915 377.80859485940346 1085.0127130470496 385.20601349027913Q1079.7247145726346 392.574535954628 1074.5234045978002 400.80994341478254Q1069.3220946229658 409.01645470841027 1065.8834508062696 416.6161465049739Q1062.4448069895734 424.2158383015376 1062.4448069895734 429.6194214420601L1062.4448069895734 429.6194214420601Q1062.4448069895734 433.3759230905516 1064.1207846481311 435.02300458258253L1064.1207846481311 435.02300458258253Q1064.7276041451953 435.6587202461734 1064.7276041451953 436.06326657754937L1064.7276041451953 436.06326657754937Q1064.7276041451953 437.1035285725163 1062.4448069895734 436.69898224114036L1062.4448069895734 436.69898224114036Q1057.6480433461152 435.8609934118614 1053.0824490348714 434.936316083002Q1048.516854723628 433.9827425876157 1045.4827572383078 430.9775412688224Q1042.4775559195145 427.9434437835023 1042.4775559195145 420.89277915094897L1042.4775559195145 420.89277915094897Q1042.4775559195145 415.25802667821154 1045.396068738727 407.2537885502719Q1048.285685391413 399.24955042233216 1052.2444602055925 390.725181296909Q1056.2032350197721 382.17191600495903 1059.121747838985 374.8900820401908L1059.121747838985 374.8900820401908Q1059.7285673360489 373.2430005481599 1061.2022718289186 369.8043567314637Q1062.6470801552614 366.36571291476764 1064.2074731477119 362.5225227666955Q1065.7678661401621 358.67933261862333 1066.605854969441 355.64523513330323Q1067.44384379872 352.64003381451005 1067.0104013008172 351.5997718195431L1067.0104013008172 351.5997718195431Q1066.605854969441 350.76178299026424 1066.605854969441 350.35723665888827L1066.605854969441 350.35723665888827Q1066.605854969441 347.8432701710516 1069.9289141200297 347.8432701710516L1069.9289141200297 347.8432701710516Q1073.2519732706185 347.8432701710516 1076.6906170873144 348.7968436664379Q1080.1292609040106 349.7215209952974 1082.8455005575354 351.8020449852312L1082.8455005575354 351.8020449852312Q1085.7351172102212 353.882568975165 1087.411094868779 356.80108179437764Q1089.0870725273367 359.7195946135903 1089.0870725273367 363.244926929867L1089.0870725273367 363.244926929867Q1089.0870725273367 365.5277240854888 1088.0468105323698 368.6485100703894L1088.0468105323698 368.6485100703894Q1087.613368034467 370.12221456325915 1086.2552482077044 372.5205963849884Q1084.926024547469 374.8900820401908 1083.4523200545993 377.6063216937155L1083.4523200545993 377.6063216937155Q1082.0075117282563 380.32256134724014 1080.447118735806 383.21217799992587Q1078.8867257433558 386.13069081913864 1079.2912720747318 386.3329639848266L1079.2912720747318 386.3329639848266Q1084.4925820495662 377.2017753623394 1090.6474655197871 369.16864106787284Q1096.773452823481 361.1644029399332 1101.859178132208 355.3562734680347Q1106.9737996074618 349.5192478296094 1108.6208810994926 346.80300817608475L1108.6208810994926 346.80300817608475Q1110.2968587580506 345.5604730154298 1114.0533604065422 345.5604730154298L1114.0533604065422 345.5604730154298Q1118.4166815520975 345.5604730154298 1122.9822758633413 348.2767126689545Q1127.5767663411116 350.9640561559522 1127.5767663411116 358.04361695503246L1127.5767663411116 358.04361695503246Q1127.5767663411116 363.8806425934579 1123.4157183612442 372.20273855319294L1123.4157183612442 372.20273855319294Q1114.4579067379182 389.25147680403927 1109.6611430944597 402.89046740471633Q1104.8932756175282 416.5005618388665 1104.8932756175282 422.97330314088265L1104.8932756175282 422.97330314088265Q1104.8932756175282 427.5388974521263 1107.3783459388378 427.5388974521263L1107.3783459388378 427.5388974521263Q1110.2968587580506 427.5388974521263 1114.0533604065422 423.7823958036347Q1117.780965888507 420.05479032167 1121.1040250390954 414.85348034683557L1121.1040250390954 414.85348034683557Q1125.6985155168659 408.1784658791313 1129.541705664938 400.6943587486751Q1133.3848958130102 393.2102516182189 1134.85860030588 390.2917387990061L1134.85860030588 390.2917387990061Q1135.4654198029439 389.0492036383513 1136.7079549635987 389.0492036383513L1136.7079549635987 389.0492036383513Q1137.9793862907804 389.0492036383513 1139.106336785328 390.40732346511356Q1140.2621834464026 391.76544329187595 1139.4241946171235 393.41252478390686L1139.4241946171235 393.41252478390686Q1137.9793862907804 396.3310376031195 1135.1475619711484 401.53234757795394Q1132.3446338180433 406.7336575527885 1128.8193015017666 412.6573716907943Q1125.265073018963 418.58108582880027 1121.1040250390954 424.0135651358496L1121.1040250390954 424.0135651358496Q1116.5384307278518 430.255137105651 1111.9728364166083 433.89605408803504Q1107.3783459388378 437.5369710704192 1101.3390471347245 437.5369710704192ZM1158.3511836922157 438.98177939676214L1158.3511836922157 438.98177939676214Q1143.180696265615 438.98177939676214 1136.4189932983304 432.1044917633699Q1129.6572903310453 425.25610029650454 1129.6572903310453 414.0154915175567L1129.6572903310453 414.0154915175567Q1129.6572903310453 405.49112239213355 1133.1826226473222 395.29077560815267L1133.1826226473222 395.29077560815267Q1135.8988623008468 386.9686796484175 1140.4644566120905 378.3287258568869Q1145.0300509233339 369.6887720653564 1151.0693497274474 362.3202496010075Q1157.108648531561 354.9228309701318 1164.390482496329 350.4439251584688Q1171.6723164610971 345.9939155133327 1179.7921392551443 345.9939155133327L1179.7921392551443 345.9939155133327Q1190.1947592048132 345.9939155133327 1196.75418900641 349.201389997814Q1203.2847226414801 352.43776064882206 1203.2847226414801 359.7195946135903L1203.2847226414801 359.7195946135903Q1203.2847226414801 365.1231777541127 1198.9214014959243 373.2430005481599L1198.9214014959243 373.2430005481599Q1193.113272024026 384.48360932710773 1181.872663245078 391.76544329187595Q1170.6320544661303 399.0472772566442 1156.7041022001847 400.087539251611L1156.7041022001847 400.087539251611Q1153.583316215284 408.6119083770342 1152.947600551693 414.0154915175567L1152.947600551693 414.0154915175567Q1152.745327386005 415.05575351252355 1152.745327386005 415.98043084138305Q1152.745327386005 416.93400433676936 1152.745327386005 417.9742663317362L1152.745327386005 417.9742663317362Q1152.745327386005 424.82265779860165 1155.8661133709059 427.85675528392176Q1158.9868993558066 430.86195660271494 1163.55249366705 430.86195660271494L1163.55249366705 430.86195660271494Q1172.076862792473 430.86195660271494 1178.5496040944895 426.49863545715937Q1184.9934492299788 422.1353143116038 1189.8769013730177 415.46029984389963Q1194.7603535160567 408.81418154272217 1198.3145819988604 402.1680632415448L1198.3145819988604 402.1680632415448Q1200.395105988794 398.4115615930533 1201.8399143151369 395.1751909420452Q1203.2847226414801 391.96771645756394 1204.122711470759 390.4940119646942L1204.122711470759 390.4940119646942Q1205.1629734657258 388.8469304726633 1206.4055086263807 388.8469304726633L1206.4055086263807 388.8469304726633Q1207.6769399535624 388.8469304726633 1208.7172019485292 390.2050502994256Q1209.757463943496 391.53427395966105 1208.9194751142172 393.2102516182189L1208.9194751142172 393.2102516182189Q1206.2032354606927 398.6138347587413 1201.4353679837611 407.57164638206734Q1196.6386043403027 416.5005618388665 1190.5993055361891 423.37784947225873L1190.5993055361891 423.37784947225873Q1183.953187235012 431.29539910061783 1176.3534954384481 435.13858924869Q1168.7538036418846 438.98177939676214 1158.3511836922157 438.98177939676214ZM1161.0674233457403 390.0894656333181L1159.3914456871826 394.04824044749773Q1168.7538036418846 390.4940119646942 1175.9489491070722 381.362823342207Q1183.115198405733 372.20273855319294 1185.600268727043 361.1644029399332L1185.600268727043 361.1644029399332Q1185.8314380592578 360.12414094496626 1185.9181265588381 359.2861521156874Q1186.0337112249456 358.47705945293535 1186.0337112249456 357.6390706236565L1186.0337112249456 357.6390706236565Q1186.0337112249456 353.4780226437889 1183.519744737109 353.4780226437889L1183.519744737109 353.4780226437889Q1181.439220747175 353.4780226437889 1179.1564235915534 356.39653546300156L1179.1564235915534 356.39653546300156Q1175.8333644409647 360.32641411065424 1172.076862792473 367.08811707793905Q1168.3492573105086 373.84982004522385 1165.4307444912956 380.32256134724014Q1162.512231672083 386.7664064827295 1161.0674233457403 390.0894656333181L1161.0674233457403 390.0894656333181ZM1234.9260249883896 437.5369710704192L1234.9260249883896 437.5369710704192Q1224.5234050387207 437.5369710704192 1220.2467723927457 431.58436076588646Q1215.9990359132976 425.6606466278805 1215.9990359132976 417.9742663317362L1215.9990359132976 417.9742663317362Q1215.9990359132976 411.09697869834406 1218.8886525659834 402.68819423902823Q1221.8071653851962 394.2505136131857 1226.083798031171 385.6105598216551Q1230.3315345106191 376.9706060301246 1234.9260249883896 369.0819525682923Q1239.4916192996332 361.1644029399332 1242.814678450222 354.9228309701318L1242.814678450222 354.9228309701318Q1240.7341544602882 355.3562734680347 1238.5669419707738 355.64523513330323Q1236.3708333147324 355.96309296509867 1234.2903093247987 355.96309296509867L1234.2903093247987 355.96309296509867Q1229.5224418478672 355.96309296509867 1225.9682133650635 354.51828463875586L1225.9682133650635 354.51828463875586Q1225.7659401993756 355.3562734680347 1225.3613938679996 356.16536613078677Q1224.9279513700967 357.0033549600656 1224.7256782044087 357.4367974579685L1224.7256782044087 357.4367974579685Q1220.160083893165 369.4864988996683 1214.9587739183307 380.9293808443041Q1209.757463943496 392.3722627889399 1205.5964159636287 399.65409675370825L1205.5964159636287 399.65409675370825Q1202.880176310104 404.4508603971666 1200.7996523201703 404.4508603971666L1200.7996523201703 404.4508603971666Q1199.1236746616123 404.4508603971666 1199.1236746616123 401.93689390933L1199.1236746616123 401.93689390933Q1199.1236746616123 400.2898124172991 1199.9616634908912 398.8161079244293L1199.9616634908912 398.8161079244293Q1204.122711470759 390.9274544625971 1209.6418792773889 378.8488568543703Q1215.1610470840187 366.79915541267053 1219.7266413952623 354.31601147306776L1219.7266413952623 354.31601147306776Q1219.9289145609503 353.882568975165 1220.2467723927457 352.7556184806175Q1220.5646302245411 351.5997718195431 1220.7669033902291 350.76178299026424L1220.7669033902291 350.76178299026424Q1218.0795599032313 347.4387238396756 1218.0795599032313 342.0351406991531L1218.0795599032313 342.0351406991531Q1218.0795599032313 338.48091221634957 1219.9289145609503 335.0711645661803Q1221.8071653851962 331.63252074948423 1225.7659401993756 331.63252074948423L1225.7659401993756 331.63252074948423Q1228.0487373549975 331.63252074948423 1230.0425728453506 333.27960224151514Q1232.007512169177 334.95557990007285 1232.007512169177 338.48091221634957L1232.007512169177 338.48091221634957Q1232.007512169177 342.64196019621716 1229.0889993499643 347.6409970053636L1229.0889993499643 347.6409970053636Q1229.5224418478672 349.11470149823333 1231.8052390034889 349.83710566140485Q1234.0880361591107 350.55950982457625 1236.8042758126353 350.55950982457625L1236.8042758126353 350.55950982457625Q1239.6938924653211 350.55950982457625 1242.5257167849531 349.7215209952974Q1245.3286449380585 348.8835321660184 1246.3689069330255 347.2364506739875L1246.3689069330255 347.2364506739875Q1248.247157757271 344.72248418615095 1252.6104789028268 344.72248418615095L1252.6104789028268 344.72248418615095Q1256.3380843847915 344.72248418615095 1260.932574862562 346.80300817608475L1260.932574862562 346.80300817608475Q1263.4176451838716 348.0744395032665 1265.0936228424293 350.4439251584688Q1266.7407043344604 352.84230698019803 1266.7407043344604 356.39653546300156L1266.7407043344604 356.39653546300156Q1266.7407043344604 362.63810743280294 1261.337121193938 372.20273855319294L1261.337121193938 372.20273855319294Q1255.5289917220393 383.0099048342379 1249.3741082518186 395.49304877384066Q1243.2481209481248 407.9761927134433 1240.3296081289122 417.9742663317362L1240.3296081289122 417.9742663317362Q1239.4916192996332 420.66160981873406 1239.4916192996332 423.17557630657075L1239.4916192996332 423.17557630657075Q1239.4916192996332 427.5388974521263 1242.207858953158 427.5388974521263L1242.207858953158 427.5388974521263Q1245.1263717723705 427.5388974521263 1248.7672887547546 423.7823958036347Q1252.4082057371388 420.05479032167 1255.9335380534153 414.85348034683557L1255.9335380534153 414.85348034683557Q1260.499132364659 408.1784658791313 1264.3712186792582 400.6943587486751Q1268.21440882733 393.2102516182189 1269.6592171536731 390.2917387990061L1269.6592171536731 390.2917387990061Q1270.294932817264 389.0492036383513 1271.5374679779188 389.0492036383513L1271.5374679779188 389.0492036383513Q1272.7800031385736 389.0492036383513 1273.9358497996482 390.40732346511356Q1275.0628002941955 391.76544329187595 1274.2537076314434 393.41252478390686L1274.2537076314434 393.41252478390686Q1271.5374679779188 399.0472772566442 1266.7407043344604 407.8895042138628Q1261.9728368575288 416.7317311710814 1255.9335380534153 424.4181114672256L1255.9335380534153 424.4181114672256Q1251.57021690786 430.0239677734361 1246.3689069330255 433.7804694219276Q1241.167596958191 437.5369710704192 1234.9260249883896 437.5369710704192ZM1287.9793867317012 437.3058017382043L1287.9793867317012 437.3058017382043Q1275.2939696264104 437.3058017382043 1266.9718736666753 429.8216946077481Q1258.64977770694 422.3375874772918 1258.64977770694 409.01645470841027L1258.64977770694 409.01645470841027Q1258.64977770694 404.4508603971666 1259.6900397019072 399.45182358802015Q1260.730301696874 394.4527867788737 1263.0130988524957 390.9274544625971Q1265.2958960081176 387.37322597979346 1269.0523976566092 387.37322597979346L1269.0523976566092 387.37322597979346Q1271.3351948122308 387.37322597979346 1272.3754568071977 388.8469304726633L1272.3754568071977 388.8469304726633Q1274.8605271285073 384.05016682920484 1277.7790399477203 379.2822993522732Q1280.6975527669329 374.48553570881484 1283.6160655861456 369.4864988996683L1283.6160655861456 369.4864988996683Q1286.9391247367344 364.08291575914586 1291.4180305483972 357.52348595754904Q1295.8680401935335 350.9640561559522 1301.7050658319588 345.87833084722524Q1307.542091470384 340.79260553849826 1314.3904829372495 340.1568898749074L1314.3904829372495 340.1568898749074Q1315.2284717665284 339.9546167092193 1316.1531490953878 339.9546167092193Q1317.106722590774 339.9546167092193 1317.944711420053 339.9546167092193L1317.944711420053 339.9546167092193Q1320.2275085756746 339.9546167092193 1322.7125788969847 340.1568898749074Q1325.2265453848213 340.3591630405954 1326.4690805454761 340.56143620628336L1326.4690805454761 340.56143620628336Q1326.873626876852 340.79260553849826 1327.07590004254 341.8328675334651Q1327.307069374755 342.87312952843195 1326.0356380475732 342.87312952843195L1326.0356380475732 342.87312952843195Q1325.2265453848213 342.87312952843195 1322.7125788969847 344.00008002297943Q1320.2275085756746 345.15592668405384 1319.794066077772 349.3169746639213L1319.794066077772 349.3169746639213Q1319.3895197463958 363.8806425934579 1318.0313999196337 378.44431052299433Q1316.6732800928712 393.0079784525308 1313.9859366058733 402.7748827386089L1313.9859366058733 402.7748827386089Q1312.7434014452188 407.7739195477553 1310.0271617916937 413.61094518618063Q1307.3109221381692 419.4190746580791 1303.5833166562045 424.0135651358496Q1299.8268150077129 428.57915944709316 1295.6657670278453 430.255137105651L1295.6657670278453 430.255137105651Q1299.8268150077129 430.255137105651 1304.5079939850639 427.65448211823366Q1309.189172962415 425.05382713081644 1313.263532442702 421.29732548232494Q1317.308995756462 417.5408238338333 1319.3895197463958 414.6512071811476L1319.3895197463958 414.6512071811476Q1323.9551140576395 408.1784658791313 1327.8272003722386 401.0122165804705Q1331.6703905203108 393.84596728180975 1333.5486413445565 389.88719246763014L1333.5486413445565 389.88719246763014Q1334.1554608416204 388.8469304726633 1334.9934496708993 388.8469304726633L1334.9934496708993 388.8469304726633Q1336.0337116658661 388.8469304726633 1336.871700495145 390.0894656333181Q1337.7096893244238 391.33200079397307 1337.7096893244238 392.8057052868428L1337.7096893244238 392.8057052868428Q1337.7096893244238 393.2102516182189 1337.5941046583166 393.61479794959484Q1337.4785199922092 394.04824044749773 1337.276246826521 394.4527867788737L1337.276246826521 394.4527867788737Q1333.5486413445565 401.93689390933 1329.0697355328934 409.5365857058937Q1324.5908297212304 417.13627750245735 1318.753804082805 423.4934341383662Q1312.9456746109067 429.8216946077481 1305.4615674804504 433.5781962562396Q1297.9485641834672 437.3058017382043 1287.9793867317012 437.3058017382043ZM1274.4559807971316 424.2158383015376L1274.4559807971316 424.2158383015376Q1276.7387779527533 424.2158383015376 1279.0215751083751 422.74213380866786Q1281.3043722639968 421.29732548232494 1282.7780767568668 418.1765394974243L1282.7780767568668 418.1765394974243Q1285.8988627417673 411.29925186403204 1288.3839330630772 402.3703364072328Q1290.8978995509137 393.41252478390686 1292.7472542086327 384.57029782668826Q1294.6255050328787 375.72807086946966 1295.9836248596407 368.7640947364969Q1297.3417446864032 361.8001186035241 1297.9485641834672 358.67933261862333L1297.9485641834672 358.67933261862333Q1294.8277781985666 362.40693810058804 1290.3777685534305 369.2842257339803Q1285.8988627417673 376.16151336737255 1281.8245032614805 383.0099048342379Q1277.7790399477203 389.88719246763014 1275.6985159577864 394.04824044749773L1275.6985159577864 394.04824044749773Q1275.9007891234746 398.8161079244293 1271.9420143092948 402.5726095729209Q1268.0121356616423 406.3291112214124 1265.0936228424293 410.2589898690651L1265.0936228424293 410.2589898690651L1265.0936228424293 412.5706831912138Q1265.0936228424293 413.37977585396584 1265.18031134201 414.6512071811476Q1265.2958960081176 415.8937423418025 1265.4981691738053 416.93400433676936L1265.4981691738053 416.93400433676936Q1266.5384311687726 420.257063487358 1269.1390861561895 422.22200281118444Q1271.7397411436068 424.2158383015376 1274.4559807971316 424.2158383015376Z " fill="#375ba3" transform="matrix(0.6541030755300614,0,0,0.6541030755300613,0,51.447190556477025)"/></g></svg>